<mxfile host="app.diagrams.net" modified="2023-01-13T18:02:13.498Z" agent="5.0 (Windows NT 10.0; Win64; x64) AppleWebKit/537.36 (KHTML, like Gecko) Chrome/109.0.0.0 Safari/537.36" version="20.7.4" etag="RsuRtMYpHdfwE0M54Paa" type="github">
  <diagram id="qp4AwvCf3zS0TIGIq1X7" name="Page-1">
    <mxGraphModel dx="1120" dy="452" grid="1" gridSize="10" guides="1" tooltips="1" connect="1" arrows="1" fold="1" page="1" pageScale="1" pageWidth="850" pageHeight="1100" math="0" shadow="0">
      <root>
        <mxCell id="0" />
        <mxCell id="1" parent="0" />
        <mxCell id="P5wvKeOjd7GELQK_Hs62-1" value="" style="shape=image;html=1;verticalAlign=top;verticalLabelPosition=bottom;labelBackgroundColor=#ffffff;imageAspect=0;aspect=fixed;image=https://cdn2.iconfinder.com/data/icons/css-vol-1/24/circleci-128.png" vertex="1" parent="1">
          <mxGeometry x="600" y="170" width="80" height="80" as="geometry" />
        </mxCell>
        <mxCell id="P5wvKeOjd7GELQK_Hs62-2" value="&lt;b&gt;&lt;font style=&quot;font-size: 24px;&quot; face=&quot;Times New Roman&quot;&gt;&lt;i&gt;CircleCi&lt;/i&gt;&lt;/font&gt;&lt;/b&gt;" style="rounded=0;whiteSpace=wrap;html=1;" vertex="1" parent="1">
          <mxGeometry x="590" y="270" width="100" height="20" as="geometry" />
        </mxCell>
        <mxCell id="P5wvKeOjd7GELQK_Hs62-5" value="" style="shape=image;html=1;verticalAlign=top;verticalLabelPosition=bottom;labelBackgroundColor=#ffffff;imageAspect=0;aspect=fixed;image=https://cdn1.iconfinder.com/data/icons/picons-social/57/github_rounded-128.png;fontFamily=Times New Roman;fontSize=24;" vertex="1" parent="1">
          <mxGeometry x="800" y="165" width="90" height="90" as="geometry" />
        </mxCell>
        <mxCell id="P5wvKeOjd7GELQK_Hs62-6" value="&lt;b&gt;&lt;i&gt;Pipline&lt;/i&gt;&lt;/b&gt;" style="rounded=0;whiteSpace=wrap;html=1;fontFamily=Times New Roman;fontSize=24;" vertex="1" parent="1">
          <mxGeometry x="595" y="120" width="90" height="40" as="geometry" />
        </mxCell>
        <mxCell id="P5wvKeOjd7GELQK_Hs62-7" value="" style="shape=flexArrow;endArrow=classic;html=1;rounded=0;fontFamily=Times New Roman;fontSize=24;strokeColor=#0000CC;" edge="1" parent="1">
          <mxGeometry width="50" height="50" relative="1" as="geometry">
            <mxPoint x="780" y="210" as="sourcePoint" />
            <mxPoint x="690" y="210" as="targetPoint" />
          </mxGeometry>
        </mxCell>
        <mxCell id="P5wvKeOjd7GELQK_Hs62-9" value="&lt;b&gt;&lt;font style=&quot;font-size: 18px;&quot;&gt;&lt;i&gt;my github repo&lt;/i&gt;&lt;/font&gt;&lt;/b&gt;" style="rounded=0;whiteSpace=wrap;html=1;fontFamily=Times New Roman;fontSize=24;" vertex="1" parent="1">
          <mxGeometry x="780" y="120" width="130" height="40" as="geometry" />
        </mxCell>
        <mxCell id="P5wvKeOjd7GELQK_Hs62-10" value="" style="shape=curlyBracket;whiteSpace=wrap;html=1;rounded=1;flipH=1;labelPosition=right;verticalLabelPosition=middle;align=left;verticalAlign=middle;fontFamily=Times New Roman;fontSize=14;strokeColor=#0000CC;" vertex="1" parent="1">
          <mxGeometry x="460" y="110" width="110" height="200" as="geometry" />
        </mxCell>
        <mxCell id="P5wvKeOjd7GELQK_Hs62-11" value="" style="outlineConnect=0;dashed=0;verticalLabelPosition=bottom;verticalAlign=top;align=center;html=1;shape=mxgraph.aws3.codebuild;fillColor=#759C3E;gradientColor=none;fontFamily=Times New Roman;fontSize=14;" vertex="1" parent="1">
          <mxGeometry x="360" y="60" width="76.5" height="93" as="geometry" />
        </mxCell>
        <mxCell id="P5wvKeOjd7GELQK_Hs62-12" value="" style="aspect=fixed;perimeter=ellipsePerimeter;html=1;align=center;shadow=0;dashed=0;fontColor=#4277BB;labelBackgroundColor=#ffffff;fontSize=12;spacingTop=3;image;image=img/lib/ibm/devops/continuous_deploy.svg;fontFamily=Times New Roman;" vertex="1" parent="1">
          <mxGeometry x="353.25" y="250" width="90" height="90" as="geometry" />
        </mxCell>
        <mxCell id="P5wvKeOjd7GELQK_Hs62-15" value="&lt;b&gt;&lt;font color=&quot;#00cc00&quot; style=&quot;font-size: 18px;&quot;&gt;&lt;i&gt;Building the app&lt;/i&gt;&lt;/font&gt;&lt;/b&gt;" style="html=1;strokeColor=#0000CC;fontFamily=Times New Roman;fontSize=14;" vertex="1" parent="1">
          <mxGeometry x="200" y="90" width="140" height="50" as="geometry" />
        </mxCell>
        <mxCell id="P5wvKeOjd7GELQK_Hs62-17" value="&lt;b&gt;&lt;font color=&quot;#cc6600&quot; style=&quot;font-size: 18px;&quot;&gt;&lt;i&gt;Deploying the app&lt;/i&gt;&lt;/font&gt;&lt;/b&gt;" style="html=1;strokeColor=#0000CC;fontFamily=Times New Roman;fontSize=14;" vertex="1" parent="1">
          <mxGeometry x="200" y="270" width="140" height="50" as="geometry" />
        </mxCell>
        <mxCell id="P5wvKeOjd7GELQK_Hs62-18" value="&lt;font color=&quot;#cc0000&quot;&gt;triggers&lt;/font&gt;" style="shape=partialRectangle;whiteSpace=wrap;html=1;right=0;top=0;bottom=0;fillColor=none;routingCenterX=-0.5;strokeColor=#CC0000;fontFamily=Times New Roman;fontSize=18;" vertex="1" parent="1">
          <mxGeometry x="710" y="170" width="70" height="20" as="geometry" />
        </mxCell>
        <mxCell id="P5wvKeOjd7GELQK_Hs62-19" style="edgeStyle=orthogonalEdgeStyle;rounded=0;orthogonalLoop=1;jettySize=auto;html=1;exitX=0.5;exitY=1;exitDx=0;exitDy=0;strokeColor=#0000CC;fontFamily=Times New Roman;fontSize=18;fontColor=#CC0000;" edge="1" parent="1" source="P5wvKeOjd7GELQK_Hs62-18" target="P5wvKeOjd7GELQK_Hs62-18">
          <mxGeometry relative="1" as="geometry" />
        </mxCell>
      </root>
    </mxGraphModel>
  </diagram>
</mxfile>
